<svg xmlns="http://www.w3.org/2000/svg" height="20" width="20"><path d="M9.25 17v-1.667q-1.062-.229-1.823-.958-.76-.729-1.073-1.813l1.542-.624q.166.75.844 1.343.677.594 1.406.594.812 0 1.333-.417.521-.416.521-1.083 0-.625-.469-1.042-.469-.416-1.656-.833Q8.25 9.917 7.5 9.219t-.75-1.802q0-1.042.677-1.792t1.823-.979V3h1.5v1.646q1.5.25 2.01 1.146.511.896.532.937l-1.459.604q-.166-.541-.666-.895-.5-.355-1.105-.355-.729 0-1.208.375t-.479.917q0 .542.521.927.521.386 1.937.865 1.459.479 2.125 1.25.667.771.667 1.958 0 1.187-.771 2t-2.104 1.021V17Z"/></svg>