<svg id="room_service-24px" xmlns="http://www.w3.org/2000/svg" width="73.186" height="73.186" viewBox="0 0 73.186 73.186">
  <path id="Caminho_14" data-name="Caminho 14" d="M0,0H73.186V73.186H0Z" fill="none"/>
  <path id="Caminho_15" data-name="Caminho 15" d="M4.83,41.059H55.775a3.01,3.01,0,0,1,0,6.01H4.83a3.01,3.01,0,0,1,0-6.01ZM35.51,13.384a6.531,6.531,0,0,0,.453-2.374A5.86,5.86,0,0,0,30.3,5a5.86,5.86,0,0,0-5.661,6.01,6.532,6.532,0,0,0,.453,2.374C14.029,15.818,5.594,25.824,4.83,38.054H55.775C55.011,25.824,46.577,15.818,35.51,13.384Z" transform="translate(6.291 5.391)" fill="#fff"/>
</svg>
